<svg version="1.1" id="Layer_1" xmlns="http://www.w3.org/2000/svg" xmlns:xlink="http://www.w3.org/1999/xlink" x="0px" y="0px"
	 width="100%" viewBox="0 0 180 180" enable-background="new 0 0 180 180" xml:space="preserve">
<path fill="#000000" opacity="1.000000" stroke="none" 
	d="
M120.000000,181.000000 
	C80.000000,181.000000 40.500004,181.000000 1.000005,181.000000 
	C1.000004,121.000008 1.000004,61.000011 1.000002,1.000013 
	C60.999989,1.000009 120.999977,1.000009 180.999969,1.000005 
	C180.999985,60.999985 180.999985,120.999969 181.000000,180.999969 
	C160.833328,181.000000 140.666672,181.000000 120.000000,181.000000 
M62.547634,144.963150 
	C69.843567,145.341446 77.153786,146.200989 84.432083,145.984985 
	C95.297127,145.662582 106.349228,145.644424 116.938660,143.555161 
	C130.115128,140.955505 140.457596,132.140106 150.463104,123.659302 
	C153.502716,121.082886 156.285080,116.445107 156.493973,112.605064 
	C157.222229,99.216133 157.214050,85.741974 156.574051,72.343758 
	C156.275223,66.087776 152.337631,61.072021 146.946182,57.327850 
	C137.168427,50.537560 126.040375,49.413639 114.688278,49.069820 
	C108.777298,48.890800 108.682251,48.605354 109.407890,42.611172 
	C109.657021,40.553268 108.930794,36.940865 107.629654,36.371746 
	C100.720024,33.349480 93.472618,33.044540 86.291054,35.933144 
	C83.744804,36.957314 82.827866,38.437778 83.555473,41.371029 
	C84.286423,44.317726 84.175911,47.473152 84.451317,50.740841 
	C80.334465,50.882973 76.767365,51.093170 76.567841,56.015751 
	C76.545868,56.557800 75.456596,57.206982 74.739395,57.547615 
	C65.755074,61.814682 56.717003,65.969398 47.753510,70.279350 
	C30.623831,78.515884 28.353313,77.672424 29.065304,98.873276 
	C29.070894,99.039719 29.012539,99.228645 29.072161,99.369873 
	C29.914902,101.365959 30.365770,103.708519 31.717789,105.268311 
	C34.042992,107.950829 34.074883,110.065697 31.746973,112.663696 
	C30.600044,113.943710 29.176947,115.743210 29.266331,117.223869 
	C29.564476,122.162689 30.294939,127.101120 31.230106,131.968536 
	C32.162148,136.819702 35.336613,140.043198 40.122894,141.065796 
	C47.238300,142.585983 54.444103,143.683044 62.547634,144.963150 
z"/>
<path fill="#3B1D19" opacity="1.000000" stroke="none" 
	d="
M62.079533,144.961670 
	C54.444103,143.683044 47.238300,142.585983 40.122894,141.065796 
	C35.336613,140.043198 32.162148,136.819702 31.230106,131.968536 
	C30.294939,127.101120 29.564476,122.162689 29.266331,117.223869 
	C29.176947,115.743210 30.600044,113.943710 31.746973,112.663696 
	C34.074883,110.065697 34.042992,107.950829 31.717789,105.268311 
	C30.365770,103.708519 29.914902,101.365959 29.072161,99.369873 
	C29.012539,99.228645 29.070894,99.039719 29.065304,98.873276 
	C28.353313,77.672424 30.623831,78.515884 47.753510,70.279350 
	C56.717003,65.969398 65.755074,61.814682 74.739395,57.547615 
	C75.456596,57.206982 76.545868,56.557800 76.567841,56.015751 
	C76.767365,51.093170 80.334465,50.882973 84.451317,50.740841 
	C84.175911,47.473152 84.286423,44.317726 83.555473,41.371029 
	C82.827866,38.437778 83.744804,36.957314 86.291054,35.933144 
	C93.472618,33.044540 100.720024,33.349480 107.629654,36.371746 
	C108.930794,36.940865 109.657021,40.553268 109.407890,42.611172 
	C108.682251,48.605354 108.777298,48.890800 114.688278,49.069820 
	C126.040375,49.413639 137.168427,50.537560 146.946182,57.327850 
	C152.337631,61.072021 156.275223,66.087776 156.574051,72.343758 
	C157.214050,85.741974 157.222229,99.216133 156.493973,112.605064 
	C156.285080,116.445107 153.502716,121.082886 150.463104,123.659302 
	C140.457596,132.140106 130.115128,140.955505 116.938660,143.555161 
	C106.349228,145.644424 95.297127,145.662582 84.432083,145.984985 
	C77.153786,146.200989 69.843567,145.341446 62.079533,144.961670 
M114.839890,55.317467 
	C107.734795,59.966080 99.769684,59.978481 91.756432,59.470016 
	C88.469009,59.261421 84.692696,57.362267 82.023071,58.434277 
	C70.275742,63.151531 58.851246,68.672745 47.309753,73.902603 
	C47.480293,74.644157 47.650833,75.385719 47.821369,76.127274 
	C54.008469,75.324883 60.182503,74.388954 66.388702,73.781792 
	C69.105080,73.516052 71.943619,73.610786 74.626198,74.096642 
	C78.607964,74.817787 82.458069,76.264099 86.439232,76.990700 
	C96.503494,78.827515 106.609596,80.435112 117.004158,82.640480 
	C117.950363,83.300407 118.896561,83.960335 120.200203,85.265823 
	C121.922195,89.345833 124.685112,93.305359 125.173889,97.528107 
	C126.731773,110.987137 127.634544,124.556900 121.900574,138.586746 
	C132.983521,132.998169 142.769226,127.422836 150.250854,118.730438 
	C152.182312,116.486427 153.503662,113.100868 153.741470,110.130508 
	C154.470398,101.025978 155.018448,91.851486 154.698242,82.737175 
	C154.469833,76.236671 154.350464,69.302635 148.974045,63.386780 
	C140.371811,54.503880 129.072952,52.996471 117.612503,52.113380 
	C116.951721,52.062462 116.147751,53.869926 114.839890,55.317467 
M62.479584,79.931236 
	C61.187145,79.281593 59.920090,78.138924 58.597706,78.070839 
	C53.819214,77.824821 49.022015,77.953430 44.232079,77.915161 
	C39.960522,77.881035 34.800587,78.075996 33.862045,82.705276 
	C32.582535,89.016312 33.188755,95.710548 33.032681,102.241592 
	C33.029804,102.362015 33.602192,102.496193 34.399235,103.188835 
	C37.757149,106.815659 37.561752,110.594543 34.098118,114.869148 
	C33.784370,119.015610 32.965771,123.199562 33.270306,127.300110 
	C33.779800,134.160477 36.787155,137.642075 43.540207,138.990707 
	C65.005409,143.277451 86.672028,144.814133 108.465973,142.136124 
	C117.055290,141.080673 122.114143,136.385849 122.700851,127.998901 
	C123.416199,117.773148 123.403290,107.426689 122.735352,97.195755 
	C122.189812,88.839684 117.235291,83.583817 109.078972,82.205956 
	C99.773270,80.633911 90.314636,79.909721 80.896454,79.131981 
	C79.684013,79.031860 78.315758,80.818764 76.316605,82.065659 
	C70.323822,85.362755 67.401207,85.051720 62.479584,79.931236 
M105.126236,52.065487 
	C104.685760,51.144714 104.273796,49.440502 103.800438,49.423279 
	C98.556236,49.232449 93.302513,49.303165 87.074829,49.303165 
	C88.094078,51.475971 88.511864,53.815666 89.391991,54.004887 
	C94.642654,55.133743 100.045624,56.300117 105.126236,52.065487 
M68.889252,82.082886 
	C70.624489,81.698952 72.517830,81.613655 74.031929,80.812042 
	C74.857101,80.375160 75.039009,78.723312 75.511040,77.619423 
	C73.447296,76.830002 71.405434,75.516121 69.312408,75.428848 
	C67.827019,75.366898 66.272598,76.960648 64.748985,77.815384 
	C65.875244,79.197319 67.001503,80.579262 68.889252,82.082886 
z"/>
<path fill="#FCC54F" opacity="1.000000" stroke="none" 
	d="
M34.882401,114.479721 
	C37.561752,110.594543 37.757149,106.815659 34.164368,102.467484 
	C34.082359,97.953407 33.882278,94.105644 34.463303,90.379684 
	C35.589657,83.156700 38.121365,81.087906 45.349342,80.875610 
	C51.129292,80.705841 56.913956,80.696640 62.696529,80.616173 
	C67.401207,85.051720 70.323822,85.362755 77.116074,81.969559 
	C87.485794,82.901405 97.097961,83.646004 106.612091,85.053284 
	C113.366867,86.052414 118.004890,90.425613 118.714035,97.243210 
	C119.602913,105.788818 120.383400,114.536888 119.523422,123.026657 
	C118.348053,134.629898 114.205254,138.340637 102.545639,139.513428 
	C84.282272,141.350433 66.013138,140.852264 47.930836,137.384552 
	C39.887741,135.842102 37.019650,132.637482 35.770084,124.405708 
	C35.272484,121.127663 35.166607,117.790161 34.882401,114.479721 
M88.163635,110.128067 
	C89.638298,111.525360 90.923180,113.478928 92.671104,114.075272 
	C93.492683,114.355576 96.068367,112.182716 96.314980,110.839790 
	C96.699753,108.744583 95.779007,106.409615 95.288147,103.426994 
	C94.759544,103.911171 95.337372,103.637367 95.452171,103.232330 
	C95.938065,101.518097 96.933014,99.577423 96.498993,98.079689 
	C96.082848,96.643661 94.017464,94.599380 92.883255,94.722557 
	C91.339386,94.890236 89.043816,96.664703 88.745193,98.098862 
	C87.985809,101.745789 88.157425,105.586578 88.163635,110.128067 
M59.491425,110.940575 
	C61.251953,107.992325 62.451431,105.139458 57.843815,103.448051 
	C58.381466,102.771324 58.768894,102.444321 58.949200,102.027679 
	C59.579815,100.570442 60.948757,98.775681 60.533356,97.678520 
	C59.926998,96.077019 58.185719,94.288597 56.604492,93.901184 
	C55.636547,93.664040 53.094078,95.780334 52.938755,97.045898 
	C52.426426,101.220306 52.100338,105.592690 52.836346,109.685181 
	C53.348324,112.531982 55.792809,114.800079 59.491425,110.940575 
M110.671310,100.466484 
	C114.524170,96.971222 115.361000,93.051437 112.093567,91.051308 
	C110.060722,89.806923 106.480835,89.243172 104.565269,90.239281 
	C103.038277,91.033325 102.024391,94.856377 102.482811,96.965279 
	C103.240479,100.450821 106.380920,101.566193 110.671310,100.466484 
M79.455841,124.258049 
	C81.259033,122.484810 83.062225,120.711571 84.865417,118.938332 
	C80.472221,120.007362 76.947296,122.805199 73.346031,122.907196 
	C69.841774,123.006439 66.259300,120.344528 62.890415,118.968231 
	C63.841579,125.092285 70.082596,127.490540 79.455841,124.258049 
M96.944862,122.470749 
	C99.078117,121.620003 102.566284,121.579842 100.849731,117.886658 
	C99.660233,115.327423 92.474838,115.251244 91.039566,117.741844 
	C90.532623,118.621544 91.130844,120.858620 91.985748,121.611237 
	C92.947632,122.458015 94.769310,122.328140 96.944862,122.470749 
M47.566952,114.889473 
	C47.491505,116.363754 47.416058,117.838043 47.340614,119.312325 
	C50.046394,119.397957 52.761314,119.618591 55.448978,119.436623 
	C55.898129,119.406212 56.625984,116.809135 56.556686,116.775505 
	C54.477165,115.766472 52.336258,114.864113 50.146328,114.116982 
	C49.626278,113.939552 48.897652,114.373466 47.566952,114.889473 
M72.339195,108.707199 
	C73.407700,108.381714 74.476196,108.056221 76.373222,107.478340 
	C71.808784,105.599037 69.131195,105.876732 68.374817,108.481071 
	C67.837479,110.331215 68.258484,113.174652 69.437042,114.582573 
	C70.384399,115.714317 73.109543,115.357903 75.045845,115.661812 
	C75.116516,115.211578 75.187180,114.761337 75.257851,114.311096 
	C69.731873,112.028992 69.731873,112.028992 72.339195,108.707199 
M43.977665,127.775444 
	C44.769173,126.235748 45.560680,124.696045 46.352188,123.156349 
	C44.948986,122.516350 43.382591,121.163086 42.188335,121.436325 
	C40.986782,121.711235 40.155384,123.603996 39.161785,124.787819 
	C40.517345,125.834900 41.872906,126.881981 43.977665,127.775444 
M116.432533,119.924904 
	C116.522766,118.183861 116.612999,116.442825 116.703232,114.701790 
	C115.141747,114.738853 113.290237,114.281837 112.112747,114.973038 
	C111.209717,115.503120 111.157013,117.481773 110.726128,118.816170 
	C112.425606,119.334412 114.125076,119.852654 116.432533,119.924904 
M82.480568,86.285545 
	C81.147285,87.501350 79.814003,88.717155 78.480721,89.932953 
	C79.460732,90.894791 80.428123,92.615807 81.423851,92.632355 
	C82.763443,92.654625 84.124878,91.362183 85.476944,90.634033 
	C84.712524,89.222305 83.948105,87.810577 82.480568,86.285545 
M45.628296,95.057755 
	C45.707909,93.631096 45.787518,92.204445 45.867126,90.777786 
	C44.621429,90.730812 43.214977,90.312027 42.182583,90.758400 
	C41.402943,91.095482 41.101601,92.538803 40.587379,93.489777 
	C42.062420,94.133575 43.537464,94.777382 45.628296,95.057755 
M88.271095,132.580200 
	C89.809593,133.108551 91.348099,133.636917 92.886604,134.165268 
	C92.917007,132.862381 92.947418,131.559509 92.977821,130.256622 
	C91.430000,130.799286 89.882179,131.341949 88.271095,132.580200 
z"/>
<path fill="#EC742C" opacity="1.000000" stroke="none" 
	d="
M149.253250,64.040955 
	C154.350464,69.302635 154.469833,76.236671 154.698242,82.737175 
	C155.018448,91.851486 154.470398,101.025978 153.741470,110.130508 
	C153.503662,113.100868 152.182312,116.486427 150.250854,118.730438 
	C142.769226,127.422836 132.983521,132.998169 121.900574,138.586746 
	C127.634544,124.556900 126.731773,110.987137 125.173889,97.528107 
	C124.685112,93.305359 121.922195,89.345833 120.273354,84.713310 
	C121.365173,83.628128 122.400230,83.124397 123.399963,82.558289 
	C132.675888,77.305710 142.563629,72.904800 149.253250,64.040955 
z"/>
<path fill="#EB732C" opacity="1.000000" stroke="none" 
	d="
M116.698936,82.134537 
	C106.609596,80.435112 96.503494,78.827515 86.439232,76.990700 
	C82.458069,76.264099 78.607964,74.817787 74.626198,74.096642 
	C71.943619,73.610786 69.105080,73.516052 66.388702,73.781792 
	C60.182503,74.388954 54.008469,75.324883 47.821369,76.127274 
	C47.650833,75.385719 47.480293,74.644157 47.309753,73.902603 
	C58.851246,68.672745 70.275742,63.151531 82.023071,58.434277 
	C84.692696,57.362267 88.469009,59.261421 91.756432,59.470016 
	C99.769684,59.978481 107.734795,59.966080 115.514427,55.111080 
	C123.437836,56.562225 130.855362,57.709309 137.884521,60.031826 
	C143.981949,62.046497 144.418900,65.924179 139.087494,69.345901 
	C131.864120,73.981903 124.183441,77.905403 116.698936,82.134537 
z"/>
<path fill="#F4E3BB" opacity="1.000000" stroke="none" 
	d="
M34.490257,114.674438 
	C35.166607,117.790161 35.272484,121.127663 35.770084,124.405708 
	C37.019650,132.637482 39.887741,135.842102 47.930836,137.384552 
	C66.013138,140.852264 84.282272,141.350433 102.545639,139.513428 
	C114.205254,138.340637 118.348053,134.629898 119.523422,123.026657 
	C120.383400,114.536888 119.602913,105.788818 118.714035,97.243210 
	C118.004890,90.425613 113.366867,86.052414 106.612091,85.053284 
	C97.097961,83.646004 87.485794,82.901405 77.467621,81.802490 
	C78.315758,80.818764 79.684013,79.031860 80.896454,79.131981 
	C90.314636,79.909721 99.773270,80.633911 109.078972,82.205956 
	C117.235291,83.583817 122.189812,88.839684 122.735352,97.195755 
	C123.403290,107.426689 123.416199,117.773148 122.700851,127.998901 
	C122.114143,136.385849 117.055290,141.080673 108.465973,142.136124 
	C86.672028,144.814133 65.005409,143.277451 43.540207,138.990707 
	C36.787155,137.642075 33.779800,134.160477 33.270306,127.300110 
	C32.965771,123.199562 33.784370,119.015610 34.490257,114.674438 
z"/>
<path fill="#F7E4BE" opacity="1.000000" stroke="none" 
	d="
M116.851547,82.387512 
	C124.183441,77.905403 131.864120,73.981903 139.087494,69.345901 
	C144.418900,65.924179 143.981949,62.046497 137.884521,60.031826 
	C130.855362,57.709309 123.437836,56.562225 115.799698,54.858604 
	C116.147751,53.869926 116.951721,52.062462 117.612503,52.113380 
	C129.072952,52.996471 140.371811,54.503880 149.113647,63.713867 
	C142.563629,72.904800 132.675888,77.305710 123.399963,82.558289 
	C122.400230,83.124397 121.365173,83.628128 120.094635,84.390533 
	C118.896561,83.960335 117.950363,83.300407 116.851547,82.387512 
z"/>
<path fill="#F4E4BD" opacity="1.000000" stroke="none" 
	d="
M62.588058,80.273705 
	C56.913956,80.696640 51.129292,80.705841 45.349342,80.875610 
	C38.121365,81.087906 35.589657,83.156700 34.463303,90.379684 
	C33.882278,94.105644 34.082359,97.953407 33.917831,102.185043 
	C33.602192,102.496193 33.029804,102.362015 33.032681,102.241592 
	C33.188755,95.710548 32.582535,89.016312 33.862045,82.705276 
	C34.800587,78.075996 39.960522,77.881035 44.232079,77.915161 
	C49.022015,77.953430 53.819214,77.824821 58.597706,78.070839 
	C59.920090,78.138924 61.187145,79.281593 62.588058,80.273705 
z"/>
<path fill="#F1E2C0" opacity="1.000000" stroke="none" 
	d="
M105.064354,52.448326 
	C100.045624,56.300117 94.642654,55.133743 89.391991,54.004887 
	C88.511864,53.815666 88.094078,51.475971 87.074829,49.303165 
	C93.302513,49.303165 98.556236,49.232449 103.800438,49.423279 
	C104.273796,49.440502 104.685760,51.144714 105.064354,52.448326 
z"/>
<path fill="#EDBA4A" opacity="1.000000" stroke="none" 
	d="
M68.508507,82.022041 
	C67.001503,80.579262 65.875244,79.197319 64.748985,77.815384 
	C66.272598,76.960648 67.827019,75.366898 69.312408,75.428848 
	C71.405434,75.516121 73.447296,76.830002 75.511040,77.619423 
	C75.039009,78.723312 74.857101,80.375160 74.031929,80.812042 
	C72.517830,81.613655 70.624489,81.698952 68.508507,82.022041 
z"/>
<path fill="#3E2017" opacity="1.000000" stroke="none" 
	d="
M88.060013,109.738922 
	C88.157425,105.586578 87.985809,101.745789 88.745193,98.098862 
	C89.043816,96.664703 91.339386,94.890236 92.883255,94.722557 
	C94.017464,94.599380 96.082848,96.643661 96.498993,98.079689 
	C96.933014,99.577423 95.938065,101.518097 95.452171,103.232330 
	C95.337372,103.637367 94.759544,103.911171 95.288147,103.426994 
	C95.779007,106.409615 96.699753,108.744583 96.314980,110.839790 
	C96.068367,112.182716 93.492683,114.355576 92.671104,114.075272 
	C90.923180,113.478928 89.638298,111.525360 88.060013,109.738922 
z"/>
<path fill="#3C1E17" opacity="1.000000" stroke="none" 
	d="
M59.262978,111.252335 
	C55.792809,114.800079 53.348324,112.531982 52.836346,109.685181 
	C52.100338,105.592690 52.426426,101.220306 52.938755,97.045898 
	C53.094078,95.780334 55.636547,93.664040 56.604492,93.901184 
	C58.185719,94.288597 59.926998,96.077019 60.533356,97.678520 
	C60.948757,98.775681 59.579815,100.570442 58.949200,102.027679 
	C58.768894,102.444321 58.381466,102.771324 57.843815,103.448051 
	C62.451431,105.139458 61.251953,107.992325 59.262978,111.252335 
z"/>
<path fill="#F7A22E" opacity="1.000000" stroke="none" 
	d="
M110.307114,100.614861 
	C106.380920,101.566193 103.240479,100.450821 102.482811,96.965279 
	C102.024391,94.856377 103.038277,91.033325 104.565269,90.239281 
	C106.480835,89.243172 110.060722,89.806923 112.093567,91.051308 
	C115.361000,93.051437 114.524170,96.971222 110.307114,100.614861 
z"/>
<path fill="#52351E" opacity="1.000000" stroke="none" 
	d="
M79.139000,124.472504 
	C70.082596,127.490540 63.841579,125.092285 62.890415,118.968231 
	C66.259300,120.344528 69.841774,123.006439 73.346031,122.907196 
	C76.947296,122.805199 80.472221,120.007362 84.865417,118.938332 
	C83.062225,120.711571 81.259033,122.484810 79.139000,124.472504 
z"/>
<path fill="#F27F2C" opacity="1.000000" stroke="none" 
	d="
M96.580917,122.546928 
	C94.769310,122.328140 92.947632,122.458015 91.985748,121.611237 
	C91.130844,120.858620 90.532623,118.621544 91.039566,117.741844 
	C92.474838,115.251244 99.660233,115.327423 100.849731,117.886658 
	C102.566284,121.579842 99.078117,121.620003 96.580917,122.546928 
z"/>
<path fill="#F27C2B" opacity="1.000000" stroke="none" 
	d="
M47.915962,114.707825 
	C48.897652,114.373466 49.626278,113.939552 50.146328,114.116982 
	C52.336258,114.864113 54.477165,115.766472 56.556686,116.775505 
	C56.625984,116.809135 55.898129,119.406212 55.448978,119.436623 
	C52.761314,119.618591 50.046394,119.397957 47.340614,119.312325 
	C47.416058,117.838043 47.491505,116.363754 47.915962,114.707825 
z"/>
<path fill="#5A3B20" opacity="1.000000" stroke="none" 
	d="
M71.971039,108.821899 
	C69.731873,112.028992 69.731873,112.028992 75.257851,114.311096 
	C75.187180,114.761337 75.116516,115.211578 75.045845,115.661812 
	C73.109543,115.357903 70.384399,115.714317 69.437042,114.582573 
	C68.258484,113.174652 67.837479,110.331215 68.374817,108.481071 
	C69.131195,105.876732 71.808784,105.599037 76.373222,107.478340 
	C74.476196,108.056221 73.407700,108.381714 71.971039,108.821899 
z"/>
<path fill="#F7A02E" opacity="1.000000" stroke="none" 
	d="
M43.603065,127.852249 
	C41.872906,126.881981 40.517345,125.834900 39.161785,124.787819 
	C40.155384,123.603996 40.986782,121.711235 42.188335,121.436325 
	C43.382591,121.163086 44.948986,122.516350 46.352188,123.156349 
	C45.560680,124.696045 44.769173,126.235748 43.603065,127.852249 
z"/>
<path fill="#F7A22F" opacity="1.000000" stroke="none" 
	d="
M116.128540,120.147896 
	C114.125076,119.852654 112.425606,119.334412 110.726128,118.816170 
	C111.157013,117.481773 111.209717,115.503120 112.112747,114.973038 
	C113.290237,114.281837 115.141747,114.738853 116.703232,114.701782 
	C116.612999,116.442825 116.522766,118.183861 116.128540,120.147896 
z"/>
<path fill="#F7A22F" opacity="1.000000" stroke="none" 
	d="
M82.832123,86.342201 
	C83.948105,87.810577 84.712524,89.222305 85.476944,90.634033 
	C84.124878,91.362183 82.763443,92.654625 81.423851,92.632355 
	C80.428123,92.615807 79.460732,90.894791 78.480728,89.932953 
	C79.814003,88.717155 81.147285,87.501350 82.832123,86.342201 
z"/>
<path fill="#F7A12F" opacity="1.000000" stroke="none" 
	d="
M45.320404,95.239471 
	C43.537464,94.777382 42.062420,94.133575 40.587379,93.489777 
	C41.101601,92.538803 41.402943,91.095482 42.182583,90.758400 
	C43.214977,90.312027 44.621429,90.730812 45.867126,90.777786 
	C45.787518,92.204445 45.707909,93.631096 45.320404,95.239471 
z"/>
<path fill="#F7A330" opacity="1.000000" stroke="none" 
	d="
M88.302727,132.232391 
	C89.882179,131.341949 91.430000,130.799286 92.977829,130.256622 
	C92.947418,131.559509 92.917007,132.862381 92.886597,134.165268 
	C91.348099,133.636917 89.809593,133.108551 88.302727,132.232391 
z"/>
</svg>